<svg width="32" height="32" viewBox="0 0 32 32" fill="none" xmlns="http://www.w3.org/2000/svg">
  <circle cx="16" cy="16" r="16" fill="url(#gradient)"/>
  <g transform="translate(8, 8)">
    <path d="M8 2v2m0 10v2M8 4c-2.209 0-4 1.791-4 4s1.791 4 4 4h4c1.105 0 2 0.895 2 2s-0.895 2-2 2H4" 
          stroke="white" stroke-width="1" stroke-linecap="round"/>
    <path d="M12 8c0-2.209-1.791-4-4-4H4c-1.105 0-2-0.895-2-2s0.895-2 2-2h8" 
          stroke="white" stroke-width="1" stroke-linecap="round"/>
  </g>
  <defs>
    <linearGradient id="gradient" x1="0%" y1="0%" x2="100%" y2="100%">
      <stop offset="0%" style="stop-color:#667eea;stop-opacity:1" />
      <stop offset="100%" style="stop-color:#764ba2;stop-opacity:1" />
    </linearGradient>
  </defs>
</svg>